<?xml version="1.0" encoding="UTF-8"?>
<svg id="_레이어_1" data-name="레이어 1" xmlns="http://www.w3.org/2000/svg" viewBox="0 0 78.344 24.017">
  <defs>
    <style>
      .cls-1 {
        fill: #fff;
        stroke-width: 0px;
      }
    </style>
  </defs>
  <path class="cls-1" d="m65.227,1.168h-1.323v2.674c0,1.257-.312,2.334-.952,3.253-.635.913-1.406,1.682-2.314,2.322-.902.634-1.842,1.144-2.828,1.529-.986.378-1.836.651-2.557.817l1.912,3.52c.365-.084.922-.261,1.67-.529.754-.266,1.557-.624,2.419-1.076.846-.434,1.683-.954,2.52-1.557.826-.6,1.518-1.286,2.073-2.046.556.782,1.229,1.472,2.029,2.06.802.597,1.617,1.109,2.468,1.543.817.429,1.607.779,2.367,1.048.762.267,1.384.454,1.878.557l1.905-3.52c-.736-.147-1.597-.412-2.596-.789-.994-.38-1.947-.898-2.85-1.558-.902-.64-1.671-1.409-2.296-2.322-.63-.919-.935-1.996-.935-3.253v-.119s.243-2.556-2.591-2.556m13.117,18.429h-25.002v3.645h20.633s4.369.26,4.369-3.645m-29.494.444v-9.206h4.432v-3.644h-4.432V0h-3.885v24.017c4.219,0,3.885-3.976,3.885-3.976m-16.637-5.53c-.252,0-.45-.081-.603-.237-.152-.147-.227-.421-.227-.814V4.837h6.37v7.27c0,.864-.203,1.478-.607,1.852-.393.363-.901.552-1.522.552h-3.41Zm6.488-13.283h-11.239v13.858c0,.96.263,1.708.79,2.235.525.519,1.212.784,2.08.784h6.126c1.601,0,2.859-.59,3.787-1.771.925-1.183,1.386-2.737,1.386-4.67v-7.509c0-3.001-2.93-2.928-2.93-2.928m-26.018-.308h-1.263v7.602c0,1.174-.133,2.167-.411,2.988-.275.826-.675,1.572-1.192,2.25h-.116c-.554-.698-.961-1.482-1.215-2.356-.258-.873-.391-1.923-.391-3.154V3.535c0-2.748-2.499-2.615-2.499-2.615h-1.261v7.602c0,1.908-.364,3.517-1.104,4.809-.739,1.286-1.817,2.218-3.231,2.775l2.183,2.871c.742-.226,1.449-.591,2.11-1.109.67-.515,1.277-1.139,1.837-1.879h.121c.468.675.979,1.241,1.523,1.685.546.434,1.21.892,1.989,1.37.839-.54,1.49-1.011,1.969-1.422.467-.416.966-.958,1.477-1.633h.127c.556.74,1.172,1.357,1.85,1.862.672.503,1.387.884,2.15,1.126l2.22-2.871c-1.478-.572-2.579-1.532-3.298-2.872-.717-1.329-1.072-2.989-1.072-4.983V3.535c0-2.605-2.502-2.615-2.502-2.615m11.553,19.121V0h-3.912v24.017c4.287,0,3.912-3.976,3.912-3.976"/>
</svg>