<svg width="34" height="34" viewBox="0 0 34 34" fill="none" xmlns="http://www.w3.org/2000/svg">
<path d="M32.4795 0.000615637C32.4245 0.00235575 32.3696 0.00717321 32.315 0.0150454H23.6425C23.4467 0.0122763 23.2523 0.04845 23.0706 0.121464C22.8889 0.194478 22.7235 0.302876 22.584 0.44036C22.4446 0.577843 22.3339 0.741669 22.2583 0.922317C22.1827 1.10296 22.1438 1.29683 22.1438 1.49265C22.1438 1.68847 22.1827 1.88234 22.2583 2.06299C22.3339 2.24364 22.4446 2.40746 22.584 2.54494C22.7235 2.68243 22.8889 2.79083 23.0706 2.86384C23.2523 2.93685 23.4467 2.97303 23.6425 2.97026H28.9413L13.7318 18.1792C13.59 18.3154 13.4768 18.4785 13.3988 18.6589C13.3208 18.8394 13.2796 19.0336 13.2776 19.2302C13.2756 19.4267 13.3128 19.6217 13.3871 19.8038C13.4614 19.9858 13.5713 20.1511 13.7103 20.2901C13.8493 20.4291 14.0147 20.539 14.1967 20.6133C14.3787 20.6876 14.5737 20.7249 14.7703 20.7229C14.9669 20.7209 15.1611 20.6797 15.3416 20.6017C15.522 20.5237 15.6851 20.4105 15.8213 20.2686L31.0308 5.05969V10.3583C31.028 10.5541 31.0642 10.7485 31.1372 10.9302C31.2102 11.1119 31.3186 11.2773 31.4561 11.4167C31.5936 11.5561 31.7574 11.6669 31.9381 11.7424C32.1187 11.818 32.3126 11.8569 32.5084 11.8569C32.7042 11.8569 32.8981 11.818 33.0788 11.7424C33.2594 11.6669 33.4232 11.5561 33.5607 11.4167C33.6982 11.2773 33.8066 11.1119 33.8796 10.9302C33.9527 10.7485 33.9888 10.5541 33.9861 10.3583V1.68024C34.0155 1.4675 33.9982 1.25091 33.9354 1.04553C33.8726 0.840161 33.7657 0.650948 33.6223 0.49107C33.4789 0.331192 33.3024 0.204491 33.105 0.119788C32.9077 0.0350853 32.6942 -0.00558266 32.4795 0.000615637ZM2.95531 5.92547C1.34014 5.92547 0 7.26557 0 8.88069V31.0448C0 32.6599 1.34014 34 2.95531 34H25.1201C26.7353 34 28.0754 32.6599 28.0754 31.0448V16.2687V12.4593L25.1201 15.4145V19.2239V31.0448H2.95531V8.88069H14.7765H17.7319H18.5861L21.5414 5.92547H17.7319H14.7765H2.95531Z" fill="#FF452C"/>
</svg>
