<svg width="25" height="21" viewBox="0 0 25 21" fill="none" xmlns="http://www.w3.org/2000/svg">
<path d="M8.11607 14.4375C8.02282 14.4375 7.92956 14.4519 7.8406 14.4822C7.33491 14.6549 6.80308 14.7656 6.24315 14.7656C5.68322 14.7656 5.15139 14.6549 4.64531 14.4822C4.55634 14.4519 4.46348 14.4375 4.37022 14.4375C1.94869 14.4375 -0.0128133 16.508 6.30348e-05 19.0567C0.00552573 20.1338 0.847952 21 1.87299 21H10.6133C11.6383 21 12.4808 20.1338 12.4862 19.0567C12.4991 16.508 10.5376 14.4375 8.11607 14.4375ZM6.24315 13.125C8.31195 13.125 9.989 11.3622 9.989 9.18751C9.989 7.01286 8.31195 5.25001 6.24315 5.25001C4.17435 5.25001 2.4973 7.01286 2.4973 9.18751C2.4973 11.3622 4.17435 13.125 6.24315 13.125ZM23.0995 0H8.11607C7.08323 0 6.24315 0.912599 6.24315 2.03397V3.9375C7.15698 3.9375 8.00292 4.21559 8.74038 4.66758V2.625H22.4752V14.4375H19.9779V11.8125H14.9835V14.4375H12.0086C12.7539 15.1221 13.301 16.0261 13.5573 17.0625H23.0995C24.1323 17.0625 24.9724 16.1499 24.9724 15.0286V2.03397C24.9724 0.912599 24.1323 0 23.0995 0Z" fill="#00AE57"/>
</svg>
