<svg width="22" height="22" viewBox="0 0 22 22" fill="none" xmlns="http://www.w3.org/2000/svg">
<path d="M10.23 4.99031L10.7096 7.23431C11.1444 9.26784 12.7328 10.8562 14.7664 11.2911L17.0104 11.7707C17.7613 11.9313 17.7613 13.0027 17.0104 13.1633L14.7664 13.6429C12.7328 14.0778 11.1444 15.6662 10.7096 17.6997L10.23 19.9437C10.0694 20.6946 8.99797 20.6946 8.83737 19.9437L8.35777 17.6997C7.92291 15.6662 6.33451 14.0778 4.30097 13.6429L2.05697 13.1633C1.30604 13.0027 1.30604 11.9313 2.05697 11.7707L4.30097 11.2911C6.33451 10.8562 7.92291 9.26784 8.35777 7.23431L8.83737 4.99031C8.99724 4.23937 10.0694 4.23937 10.23 4.99031ZM17.3367 1.85164L17.7679 3.40557C17.8794 3.80671 18.1932 4.12057 18.5944 4.23204L20.1483 4.66324C20.625 4.79524 20.625 5.47137 20.1483 5.60337L18.5944 6.03457C18.1932 6.14604 17.8794 6.45991 17.7679 6.86104L17.3367 8.41497C17.2047 8.89164 16.5286 8.89164 16.3966 8.41497L15.9654 6.86104C15.8539 6.45991 15.54 6.14604 15.1389 6.03457L13.585 5.60337C13.1083 5.47137 13.1083 4.79524 13.585 4.66324L15.1389 4.23204C15.54 4.12057 15.8539 3.80671 15.9654 3.40557L16.3966 1.85164C16.5286 1.37497 17.2047 1.37497 17.3367 1.85164Z" fill="#5563FF"/>
</svg>
