<svg width="28" height="33" viewBox="0 0 28 33" fill="none" xmlns="http://www.w3.org/2000/svg">
<path d="M24.1272 10.9761L25.4093 12.2552C25.9521 12.7968 25.9521 13.6726 25.4093 14.2085L14.1883 25.4093C13.6454 25.9509 12.7676 25.9509 12.2306 25.4093L1.00382 14.2085C0.460966 13.6669 0.460966 12.7911 1.00382 12.2552L2.28589 10.9761C2.83452 10.4288 3.72965 10.4403 4.26673 10.9992L10.8965 17.9421V1.38282C10.8965 0.616506 11.5144 0 12.2825 0H14.1306C14.8986 0 15.5166 0.616506 15.5166 1.38282V17.9421L22.1463 10.9992C22.6834 10.4345 23.5786 10.423 24.1272 10.9761Z" fill="#7C00CE"/>
<rect y="27.4156" width="27.1542" height="5.17224" fill="#7C00CE"/>
</svg>
