<svg width="163" height="50" viewBox="0 0 163 50" fill="none" xmlns="http://www.w3.org/2000/svg">
<path d="M135.676 2.42769H132.923V7.98898C132.923 10.6061 132.269 12.8444 130.944 14.7555C129.619 16.6494 128.019 18.2507 126.126 19.5937C124.25 20.9194 122.289 21.9697 120.241 22.7789C118.194 23.5709 116.421 24.1391 114.924 24.4835L118.899 31.8182C119.656 31.646 120.826 31.2672 122.375 30.7163C123.941 30.1653 125.61 29.4249 127.416 28.478C129.171 27.5826 130.909 26.4979 132.664 25.241C134.385 23.9842 135.83 22.5551 136.983 20.9883C138.136 22.624 139.547 24.053 141.199 25.2755C142.868 26.5152 144.572 27.5826 146.327 28.4952C148.03 29.3905 149.665 30.1136 151.248 30.6818C152.831 31.2328 154.121 31.6288 155.154 31.8354L159.128 24.5007C157.597 24.1908 155.808 23.6398 153.726 22.865C151.661 22.073 149.682 20.9883 147.789 19.6281C145.914 18.3023 144.313 16.7011 143.023 14.7899C141.715 12.8788 141.079 10.6405 141.079 8.02342V7.78237C141.079 7.78237 141.578 2.46212 135.693 2.46212M162.983 40.823H110.967V48.416H153.898C153.898 48.416 162.983 48.9497 162.983 40.823ZM101.623 41.7355V22.5723H110.846V14.9793H101.623V0H93.5362V50C102.312 50 101.623 41.7183 101.623 41.7183M67.0033 30.1997C66.4699 30.1997 66.0741 30.0275 65.7472 29.7004C65.4374 29.3905 65.2826 28.8223 65.2826 28.0131V10.0723H78.5318V25.2066C78.5318 26.9972 78.1017 28.2886 77.2757 29.0634C76.467 29.8209 75.4002 30.2169 74.1097 30.2169H67.0205L67.0033 30.1997ZM80.4934 2.56543H57.1094V31.405C57.1094 33.4022 57.66 34.969 58.7612 36.0537C59.8452 37.1384 61.2906 37.6894 63.0973 37.6894H75.8476C79.1685 37.6894 81.8011 36.4669 83.7283 34.0048C85.6554 31.5427 86.619 28.3058 86.619 24.2769V8.64325C86.619 2.39325 80.5278 2.54821 80.5278 2.54821M26.3952 1.91116H23.7626V17.7342C23.7626 20.1791 23.4873 22.2452 22.9022 23.9497C22.3344 25.6715 21.4913 27.2211 20.4245 28.6329H20.1836C19.0307 27.1694 18.1876 25.551 17.6542 23.7259C17.1208 21.9008 16.8455 19.7142 16.8455 17.166V7.35193C16.8455 1.63567 11.649 1.91116 11.649 1.91116H9.03357V17.7342C9.03357 21.7114 8.27647 25.0517 6.72786 27.7376C5.19645 30.4063 2.94236 32.3519 0 33.5227L4.54259 39.4972C6.09121 39.0324 7.55378 38.2748 8.93033 37.1901C10.3241 36.1226 11.5802 34.814 12.7502 33.2817H13.0083C13.9891 34.6935 15.0559 35.8643 16.1744 36.7941C17.31 37.7066 18.6866 38.6536 20.304 39.6522C22.0419 38.5331 23.4012 37.5517 24.3992 36.6908C25.38 35.8299 26.4124 34.6935 27.462 33.2817H27.7201C28.873 34.8313 30.1635 36.1054 31.5745 37.1556C32.9682 38.2059 34.4652 38.9979 36.0482 39.4972L40.6597 33.5227C37.5796 32.3347 35.2911 30.3375 33.7942 27.5482C32.2972 24.7762 31.5573 21.3154 31.5573 17.1832V7.36915C31.5573 1.94559 26.3436 1.92837 26.3436 1.92837M50.3815 41.7355V0H42.2427V50C51.1558 50 50.3815 41.7183 50.3815 41.7183" fill="white"/>
</svg>
